<svg version="1.1" xmlns="http://www.w3.org/2000/svg" viewBox="0 0 334.83203125 251.982177734375" width="334.83203125" height="251.982177734375">
  <!-- svg-source:excalidraw -->
  
  <defs>
    <style class="style-fonts">
      @font-face {
        font-family: "Virgil";
        src: url("https://excalidraw.com/Virgil.woff2");
      }
      @font-face {
        font-family: "Cascadia";
        src: url("https://excalidraw.com/Cascadia.woff2");
      }
    </style>
    
  </defs>
  <rect x="0" y="0" width="334.83203125" height="251.982177734375" fill="#ffffff"/><g stroke-linecap="round"><g transform="translate(166.9111328125 88.809326171875) rotate(0 -29.587890625 38.8544921875)"><path d="M0 0 C-9.86 12.95, -49.31 64.76, -59.18 77.71 M0 0 C-9.86 12.95, -49.31 64.76, -59.18 77.71" stroke="#1e1e1e" stroke-width="1" fill="none"/></g></g><mask/><g stroke-linecap="round"><g transform="translate(224.236328125 166.990966796875) rotate(0 -28.6142578125 -38.9794921875)"><path d="M0 0 C-9.54 -12.99, -47.69 -64.97, -57.23 -77.96 M0 0 C-9.54 -12.99, -47.69 -64.97, -57.23 -77.96" stroke="#1e1e1e" stroke-width="1" fill="none"/></g></g><mask/><g stroke-linecap="round"><g transform="translate(107.9326171875 166.307373046875) rotate(0 58.2275390625 0.38671875)"><path d="M0 0 C19.41 0.13, 97.05 0.64, 116.46 0.77 M0 0 C19.41 0.13, 97.05 0.64, 116.46 0.77" stroke="#1e1e1e" stroke-width="1" fill="none"/></g></g><mask/><g stroke-linecap="round"><g transform="translate(107.9677734375 166.536865234375) rotate(0 -29.0498046875 37.72265625)"><path d="M0 0 C-9.68 12.57, -48.42 62.87, -58.1 75.45" stroke="#1e1e1e" stroke-width="1.5" fill="none" stroke-dasharray="8 9"/></g></g><mask/><g stroke-linecap="round"><g transform="translate(107.77734375 166.406005859375) rotate(0 -48.888671875 0.7265625)"><path d="M0 0 C-16.3 0.24, -81.48 1.21, -97.78 1.45" stroke="#1e1e1e" stroke-width="1.5" fill="none" stroke-dasharray="8 9"/></g></g><mask/><g transform="translate(92.8291015625 142.747802734375) rotate(0 8.44921875 9.199999999999989)"><text x="0" y="0" font-family="Helvetica, Segoe UI Emoji" font-size="16px" fill="#1e1e1e" text-anchor="start" style="white-space: pre;" direction="ltr" dominant-baseline="text-before-edge">v0</text></g><g transform="translate(223.6533203125 143.41889648437495) rotate(0 8.44921875 9.199999999999989)"><text x="0" y="0" font-family="Helvetica, Segoe UI Emoji" font-size="16px" fill="#1e1e1e" text-anchor="start" style="white-space: pre;" direction="ltr" dominant-baseline="text-before-edge">v1</text></g><g transform="translate(159.4326171875 54.563427734374955) rotate(0 8.44921875 9.199999999999989)"><text x="0" y="0" font-family="Helvetica, Segoe UI Emoji" font-size="16px" fill="#1e1e1e" text-anchor="start" style="white-space: pre;" direction="ltr" dominant-baseline="text-before-edge">v2</text></g><g transform="translate(155.3173828125 127.128662109375) rotate(0 9.78515625 9.199999999999989)"><text x="0" y="0" font-family="Helvetica, Segoe UI Emoji" font-size="16px" fill="#1e1e1e" text-anchor="start" style="white-space: pre;" direction="ltr" dominant-baseline="text-before-edge">A1</text></g><g transform="translate(63.2822265625 79.67280273437495) rotate(0 9.78515625 9.199999999999989)"><text x="0" y="0" font-family="Helvetica, Segoe UI Emoji" font-size="16px" fill="#1e1e1e" text-anchor="start" style="white-space: pre;" direction="ltr" dominant-baseline="text-before-edge">A2</text></g><g stroke-linecap="round"><g transform="translate(279.8291015625 238.8779296875) rotate(0 -28.0625 -36.1806640625)"><path d="M0 0 C-9.35 -12.06, -46.77 -60.3, -56.13 -72.36" stroke="#1e1e1e" stroke-width="1.5" fill="none" stroke-dasharray="8 9"/></g></g><mask/><g stroke-linecap="round"><g transform="translate(167.52734375 90.033203125) rotate(0 -28.48046875 -36.9736328125)"><path d="M0 0 C-9.49 -12.32, -47.47 -61.62, -56.96 -73.95" stroke="#1e1e1e" stroke-width="1.5" fill="none" stroke-dasharray="8 9"/></g></g><mask/><g stroke-linecap="round"><g transform="translate(166.224609375 89.572265625) rotate(0 27.90625 -39.7861328125)"><path d="M0 0 C9.3 -13.26, 46.51 -66.31, 55.81 -79.57" stroke="#1e1e1e" stroke-width="1.5" fill="none" stroke-dasharray="8 9"/></g></g><mask/><g stroke-linecap="round"><g transform="translate(224.5234375 167.4296875) rotate(0 50.154296875 0.404296875)"><path d="M0 0 C16.72 0.13, 83.59 0.67, 100.31 0.81" stroke="#1e1e1e" stroke-width="1.5" fill="none" stroke-dasharray="8 9"/></g></g><mask/><g transform="translate(39.0703125 181.03144531249995) rotate(0 9.78515625 9.199999999999989)"><text x="0" y="0" font-family="Helvetica, Segoe UI Emoji" font-size="16px" fill="#1e1e1e" text-anchor="start" style="white-space: pre;" direction="ltr" dominant-baseline="text-before-edge">A3</text></g><g transform="translate(157.642578125 190.98652343749995) rotate(0 9.78515625 9.199999999999989)"><text x="0" y="0" font-family="Helvetica, Segoe UI Emoji" font-size="16px" fill="#1e1e1e" text-anchor="start" style="white-space: pre;" direction="ltr" dominant-baseline="text-before-edge">A4</text></g><g transform="translate(280.771484375 184.16816406249995) rotate(0 9.78515625 9.199999999999989)"><text x="0" y="0" font-family="Helvetica, Segoe UI Emoji" font-size="16px" fill="#1e1e1e" text-anchor="start" style="white-space: pre;" direction="ltr" dominant-baseline="text-before-edge">A5</text></g><g transform="translate(244.619140625 79.39472656249995) rotate(0 9.78515625 9.199999999999989)"><text x="0" y="0" font-family="Helvetica, Segoe UI Emoji" font-size="16px" fill="#1e1e1e" text-anchor="start" style="white-space: pre;" direction="ltr" dominant-baseline="text-before-edge">A6</text></g><g transform="translate(154.58984375 10.328320312499955) rotate(0 9.78515625 9.199999999999989)"><text x="0" y="0" font-family="Helvetica, Segoe UI Emoji" font-size="16px" fill="#1e1e1e" text-anchor="start" style="white-space: pre;" direction="ltr" dominant-baseline="text-before-edge">A7</text></g></svg>