<svg version="1.1" xmlns="http://www.w3.org/2000/svg" viewBox="0 0 292.494140625 189.13671875" width="292.494140625" height="189.13671875">
  <!-- svg-source:excalidraw -->
  
  <defs>
    <style class="style-fonts">
      @font-face {
        font-family: "Virgil";
        src: url("https://excalidraw.com/Virgil.woff2");
      }
      @font-face {
        font-family: "Cascadia";
        src: url("https://excalidraw.com/Cascadia.woff2");
      }
    </style>
    
  </defs>
  <rect x="0" y="0" width="292.494140625" height="189.13671875" fill="#ffffff"/><g stroke-linecap="round"><g transform="translate(225.017578125 10.111328125) rotate(0 -29.587890625 38.8544921875)"><path d="M0 0 C-9.86 12.95, -49.31 64.76, -59.18 77.71 M0 0 C-9.86 12.95, -49.31 64.76, -59.18 77.71" stroke="#1e1e1e" stroke-width="1" fill="none"/></g></g><mask/><g stroke-linecap="round"><g transform="translate(282.3427734375 88.29296875) rotate(0 -28.6142578125 -38.9794921875)"><path d="M0 0 C-9.54 -12.99, -47.69 -64.97, -57.23 -77.96 M0 0 C-9.54 -12.99, -47.69 -64.97, -57.23 -77.96" stroke="#1e1e1e" stroke-width="1" fill="none"/></g></g><mask/><g stroke-linecap="round"><g transform="translate(166.0390625 87.609375) rotate(0 58.2275390625 0.38671875)"><path d="M0 0 C19.41 0.13, 97.05 0.64, 116.46 0.77 M0 0 C19.41 0.13, 97.05 0.64, 116.46 0.77" stroke="#1e1e1e" stroke-width="1" fill="none"/></g></g><mask/><g stroke-linecap="round"><g transform="translate(166.146484375 88.197265625) rotate(0 29.166015625 39.7490234375)"><path d="M0 0 C9.72 13.25, 48.61 66.25, 58.33 79.5 M0 0 C9.72 13.25, 48.61 66.25, 58.33 79.5" stroke="#1e1e1e" stroke-width="1" fill="none"/></g></g><mask/><g stroke-linecap="round"><g transform="translate(224.681640625 167.576171875) rotate(0 28.7353515625 -39.4716796875)"><path d="M0 0 C9.58 -13.16, 47.89 -65.79, 57.47 -78.94 M0 0 C9.58 -13.16, 47.89 -65.79, 57.47 -78.94" stroke="#1e1e1e" stroke-width="1" fill="none"/></g></g><mask/><g stroke-linecap="round"><g transform="translate(166.5078125 87.408203125) rotate(0 -24.57421875 -36.1416015625)"><path d="M0 0 C-8.19 -12.05, -40.96 -60.24, -49.15 -72.28 M0 0 C-8.19 -12.05, -40.96 -60.24, -49.15 -72.28" stroke="#1e1e1e" stroke-width="1" fill="none"/></g></g><mask/><g stroke-linecap="round"><g transform="translate(118.625 14.576171875) rotate(0 53.068359375 -2.2880859375)"><path d="M0 0 C17.69 -0.76, 88.45 -3.81, 106.14 -4.58 M0 0 C17.69 -0.76, 88.45 -3.81, 106.14 -4.58" stroke="#1e1e1e" stroke-width="1" fill="none"/></g></g><mask/><g stroke-linecap="round"><g transform="translate(165.98828125 88.0859375) rotate(0 -42.2578125 9.3203125)"><path d="M0 0 C-14.09 3.11, -70.43 15.53, -84.52 18.64 M0 0 C-14.09 3.11, -70.43 15.53, -84.52 18.64" stroke="#1e1e1e" stroke-width="1" fill="none"/></g></g><mask/><g stroke-linecap="round"><g transform="translate(81.408203125 106.572265625) rotate(0 18.1484375 -46.037109375)"><path d="M0 0 C6.05 -15.35, 30.25 -76.73, 36.3 -92.07 M0 0 C6.05 -15.35, 30.25 -76.73, 36.3 -92.07" stroke="#1e1e1e" stroke-width="1" fill="none"/></g></g><mask/><g stroke-linecap="round"><g transform="translate(82.162109375 106.720703125) rotate(0 24.201171875 29.900390625)"><path d="M0 0 C8.07 9.97, 40.34 49.83, 48.4 59.8 M0 0 C8.07 9.97, 40.34 49.83, 48.4 59.8" stroke="#1e1e1e" stroke-width="1" fill="none"/></g></g><mask/><g stroke-linecap="round"><g transform="translate(130.833984375 167.064453125) rotate(0 17.669921875 -39.0029296875)"><path d="M0 0 C5.89 -13, 29.45 -65, 35.34 -78.01 M0 0 C5.89 -13, 29.45 -65, 35.34 -78.01" stroke="#1e1e1e" stroke-width="1" fill="none"/></g></g><mask/><g stroke-linecap="round"><g transform="translate(130.884765625 167.5546875) rotate(0 46.927734375 -0.271484375)"><path d="M0 0 C15.64 -0.09, 78.21 -0.45, 93.86 -0.54 M0 0 C15.64 -0.09, 78.21 -0.45, 93.86 -0.54" stroke="#1e1e1e" stroke-width="1" fill="none"/></g></g><mask/><g stroke-linecap="round"><g transform="translate(82.3125 106.443359375) rotate(0 -36.15625 8.0126953125)"><path d="M0 0 C-12.05 2.67, -60.26 13.35, -72.31 16.03" stroke="#1e1e1e" stroke-width="1.5" fill="none" stroke-dasharray="8 9"/></g></g><mask/><g stroke-linecap="round"><g transform="translate(81.572265625 106.30078125) rotate(0 -13.9970703125 36.41796875)"><path d="M0 0 C-4.67 12.14, -23.33 60.7, -27.99 72.84" stroke="#1e1e1e" stroke-width="1.5" fill="none" stroke-dasharray="8 9"/></g></g><mask/><g stroke-linecap="round" transform="translate(40.25390625 135.591796875) rotate(0 3.2353515625 3.09765625)"><path d="M6.47 3.1 C6.47 3.28, 6.45 3.46, 6.42 3.64 C6.39 3.81, 6.34 3.99, 6.28 4.16 C6.21 4.33, 6.13 4.49, 6.04 4.65 C5.94 4.8, 5.83 4.95, 5.71 5.09 C5.59 5.23, 5.46 5.36, 5.31 5.47 C5.17 5.59, 5.02 5.69, 4.85 5.78 C4.69 5.87, 4.52 5.95, 4.34 6.01 C4.17 6.07, 3.98 6.12, 3.8 6.15 C3.61 6.18, 3.42 6.2, 3.24 6.2 C3.05 6.2, 2.86 6.18, 2.67 6.15 C2.49 6.12, 2.3 6.07, 2.13 6.01 C1.95 5.95, 1.78 5.87, 1.62 5.78 C1.46 5.69, 1.3 5.59, 1.16 5.47 C1.01 5.36, 0.88 5.23, 0.76 5.09 C0.64 4.95, 0.53 4.8, 0.43 4.65 C0.34 4.49, 0.26 4.33, 0.2 4.16 C0.13 3.99, 0.08 3.81, 0.05 3.64 C0.02 3.46, 0 3.28, 0 3.1 C0 2.92, 0.02 2.74, 0.05 2.56 C0.08 2.38, 0.13 2.21, 0.2 2.04 C0.26 1.87, 0.34 1.7, 0.43 1.55 C0.53 1.39, 0.64 1.24, 0.76 1.11 C0.88 0.97, 1.01 0.84, 1.16 0.72 C1.3 0.61, 1.46 0.5, 1.62 0.42 C1.78 0.33, 1.95 0.25, 2.13 0.19 C2.3 0.13, 2.49 0.08, 2.67 0.05 C2.86 0.02, 3.05 0, 3.24 0 C3.42 0, 3.61 0.02, 3.8 0.05 C3.98 0.08, 4.17 0.13, 4.34 0.19 C4.52 0.25, 4.69 0.33, 4.85 0.42 C5.02 0.5, 5.17 0.61, 5.31 0.72 C5.46 0.84, 5.59 0.97, 5.71 1.11 C5.83 1.24, 5.94 1.39, 6.04 1.55 C6.13 1.7, 6.21 1.87, 6.28 2.04 C6.34 2.21, 6.39 2.38, 6.42 2.56 C6.45 2.74, 6.46 3.01, 6.47 3.1 C6.48 3.19, 6.48 3.01, 6.47 3.1" stroke="none" stroke-width="0" fill="#1e1e1e"/><path d="M6.47 3.1 C6.47 3.28, 6.45 3.46, 6.42 3.64 C6.39 3.81, 6.34 3.99, 6.28 4.16 C6.21 4.33, 6.13 4.49, 6.04 4.65 C5.94 4.8, 5.83 4.95, 5.71 5.09 C5.59 5.23, 5.46 5.36, 5.31 5.47 C5.17 5.59, 5.02 5.69, 4.85 5.78 C4.69 5.87, 4.52 5.95, 4.34 6.01 C4.17 6.07, 3.98 6.12, 3.8 6.15 C3.61 6.18, 3.42 6.2, 3.24 6.2 C3.05 6.2, 2.86 6.18, 2.67 6.15 C2.49 6.12, 2.3 6.07, 2.13 6.01 C1.95 5.95, 1.78 5.87, 1.62 5.78 C1.46 5.69, 1.3 5.59, 1.16 5.47 C1.01 5.36, 0.88 5.23, 0.76 5.09 C0.64 4.95, 0.53 4.8, 0.43 4.65 C0.34 4.49, 0.26 4.33, 0.2 4.16 C0.13 3.99, 0.08 3.81, 0.05 3.64 C0.02 3.46, 0 3.28, 0 3.1 C0 2.92, 0.02 2.74, 0.05 2.56 C0.08 2.38, 0.13 2.21, 0.2 2.04 C0.26 1.87, 0.34 1.7, 0.43 1.55 C0.53 1.39, 0.64 1.24, 0.76 1.11 C0.88 0.97, 1.01 0.84, 1.16 0.72 C1.3 0.61, 1.46 0.5, 1.62 0.42 C1.78 0.33, 1.95 0.25, 2.13 0.19 C2.3 0.13, 2.49 0.08, 2.67 0.05 C2.86 0.02, 3.05 0, 3.24 0 C3.42 0, 3.61 0.02, 3.8 0.05 C3.98 0.08, 4.17 0.13, 4.34 0.19 C4.52 0.25, 4.69 0.33, 4.85 0.42 C5.02 0.5, 5.17 0.61, 5.31 0.72 C5.46 0.84, 5.59 0.97, 5.71 1.11 C5.83 1.24, 5.94 1.39, 6.04 1.55 C6.13 1.7, 6.21 1.87, 6.28 2.04 C6.34 2.21, 6.39 2.38, 6.42 2.56 C6.45 2.74, 6.46 3.01, 6.47 3.1 C6.48 3.19, 6.48 3.01, 6.47 3.1" stroke="#1e1e1e" stroke-width="2" fill="none"/></g><g transform="translate(26.615234375 135.705078125) rotate(0 4.44921875 9.199999999999989)"><text x="0" y="0" font-family="Helvetica, Segoe UI Emoji" font-size="16px" fill="#1e1e1e" text-anchor="start" style="white-space: pre;" direction="ltr" dominant-baseline="text-before-edge">q</text></g><g stroke-linecap="round"><g stroke-opacity="0.7" fill-opacity="0.7" transform="translate(150.3076171875 91.583251953125) rotate(0 1.4931640625 -9.671875)"><path d="M0 0 C-0.42 -1.78, -3.42 -7.46, -2.51 -10.68 C-1.59 -13.9, 4.16 -17.9, 5.49 -19.34 M0 0 C-0.42 -1.78, -3.42 -7.46, -2.51 -10.68 C-1.59 -13.9, 4.16 -17.9, 5.49 -19.34" stroke="#1971c2" stroke-width="2" fill="none"/></g></g><mask/><g stroke-linecap="round"><g stroke-opacity="0.7" fill-opacity="0.7" transform="translate(159.45935796908884 105.200439453125) rotate(0 -4.9765625 -6.494140625)"><path d="M0 0 C-1.66 -0.54, -8.46 -1.1, -9.95 -3.26 C-11.45 -5.43, -9.15 -11.37, -8.98 -12.99 M0 0 C-1.66 -0.54, -8.46 -1.1, -9.95 -3.26 C-11.45 -5.43, -9.15 -11.37, -8.98 -12.99" stroke="#e03131" stroke-width="2" fill="none"/></g></g><mask/><g stroke-linecap="round"><g stroke-opacity="0.7" fill-opacity="0.7" transform="translate(186.71530846013354 103.77035227229004) rotate(240.5229312304511 -4.346896597544514 -7.428374603029539)"><path d="M0 0 C-1.45 -0.89, -7.27 -2.89, -8.69 -5.36 C-10.12 -7.84, -8.57 -13.27, -8.55 -14.86 M0 0 C-1.45 -0.89, -7.27 -2.89, -8.69 -5.36 C-10.12 -7.84, -8.57 -13.27, -8.55 -14.86" stroke="#e03131" stroke-width="2" fill="none"/></g></g><mask/><g stroke-linecap="round"><g stroke-opacity="0.7" fill-opacity="0.7" transform="translate(166.7856714840293 114.27607649603056) rotate(245.82838765823038 1.5885903595550985 -8.758799778576673)"><path d="M0 0 C-0.42 -1.78, -3.46 -7.76, -2.51 -10.68 C-1.56 -13.6, 4.32 -16.38, 5.68 -17.52 M0 0 C-0.42 -1.78, -3.46 -7.76, -2.51 -10.68 C-1.56 -13.6, 4.32 -16.38, 5.68 -17.52" stroke="#1971c2" stroke-width="2" fill="none"/></g></g><mask/><g stroke-linecap="round"><g stroke-opacity="0.7" fill-opacity="0.7" transform="translate(182.5291005364337 87.80502186885644) rotate(137.12400365765413 1.3489545223495156 -8.369541020874777)"><path d="M0 0 C-0.35 -1.7, -2.93 -7.42, -2.13 -10.21 C-1.32 -12.99, 3.67 -15.65, 4.83 -16.74 M0 0 C-0.35 -1.7, -2.93 -7.42, -2.13 -10.21 C-1.32 -12.99, 3.67 -15.65, 4.83 -16.74" stroke="#1971c2" stroke-width="2" fill="none"/></g></g><mask/><g stroke-linecap="round"><g stroke-opacity="0.7" fill-opacity="0.7" transform="translate(171.81767959373713 80.60260418069413) rotate(112.08592274702995 -4.346896597544514 -8.717154804043957)"><path d="M0 0 C-1.45 -0.89, -7.28 -2.46, -8.69 -5.36 C-10.11 -8.27, -8.52 -15.42, -8.49 -17.43 M0 0 C-1.45 -0.89, -7.28 -2.46, -8.69 -5.36 C-10.11 -8.27, -8.52 -15.42, -8.49 -17.43" stroke="#e03131" stroke-width="2" fill="none"/></g></g><mask/><g stroke-linecap="round"><g stroke-opacity="0.7" fill-opacity="0.7" transform="translate(122.30179433924354 66.96934678100962) rotate(0 -1.4375182633717714 -7.62664116394231)"><path d="M0 0 C-0.48 -2.54, -2.4 -12.71, -2.88 -15.25 M0 0 C-0.48 -2.54, -2.4 -12.71, -2.88 -15.25" stroke="#1971c2" stroke-width="2" fill="none"/></g><g stroke-opacity="0.7" fill-opacity="0.7" transform="translate(122.30179433924354 66.96934678100962) rotate(0 -1.4375182633717714 -7.62664116394231)"><path d="M1.08 -8.58 C0.02 -10.38, -1.05 -12.18, -2.88 -15.25 M1.08 -8.58 C0.02 -10.38, -1.05 -12.18, -2.88 -15.25" stroke="#1971c2" stroke-width="2" fill="none"/></g><g stroke-opacity="0.7" fill-opacity="0.7" transform="translate(122.30179433924354 66.96934678100962) rotate(0 -1.4375182633717714 -7.62664116394231)"><path d="M-4.13 -7.59 C-3.79 -9.66, -3.45 -11.73, -2.88 -15.25 M-4.13 -7.59 C-3.79 -9.66, -3.45 -11.73, -2.88 -15.25" stroke="#1971c2" stroke-width="2" fill="none"/></g></g><mask/><g stroke-linecap="round"><g stroke-opacity="0.7" fill-opacity="0.7" transform="translate(175.63671875 143.532470703125) rotate(0 -1.0360138194971569 -7.354616753965843)"><path d="M0 0 C-0.35 -2.45, -1.73 -12.26, -2.07 -14.71 M0 0 C-0.35 -2.45, -1.73 -12.26, -2.07 -14.71" stroke="#1971c2" stroke-width="2" fill="none"/></g><g stroke-opacity="0.7" fill-opacity="0.7" transform="translate(175.63671875 143.532470703125) rotate(0 -1.0360138194971569 -7.354616753965843)"><path d="M1.42 -8.15 C0.44 -9.98, -0.53 -11.82, -2.07 -14.71 M1.42 -8.15 C0.13 -10.57, -1.16 -12.99, -2.07 -14.71" stroke="#1971c2" stroke-width="2" fill="none"/></g><g stroke-opacity="0.7" fill-opacity="0.7" transform="translate(175.63671875 143.532470703125) rotate(0 -1.0360138194971569 -7.354616753965843)"><path d="M-3.61 -7.44 C-3.18 -9.47, -2.75 -11.5, -2.07 -14.71 M-3.61 -7.44 C-3.05 -10.12, -2.48 -12.8, -2.07 -14.71" stroke="#1971c2" stroke-width="2" fill="none"/></g></g><mask/><g stroke-linecap="round"><g stroke-opacity="0.7" fill-opacity="0.7" transform="translate(222.966796875 61.700439453125) rotate(0 -1.0830078125 -7.6064453125)"><path d="M0 0 C-0.36 -2.54, -1.81 -12.68, -2.17 -15.21 M0 0 C-0.36 -2.54, -1.81 -12.68, -2.17 -15.21" stroke="#1971c2" stroke-width="2" fill="none"/></g><g stroke-opacity="0.7" fill-opacity="0.7" transform="translate(222.966796875 61.700439453125) rotate(0 -1.0830078125 -7.6064453125)"><path d="M1.45 -8.44 C0.35 -10.5, -0.76 -12.57, -2.17 -15.21 M1.45 -8.44 C0.12 -10.93, -1.22 -13.43, -2.17 -15.21" stroke="#1971c2" stroke-width="2" fill="none"/></g><g stroke-opacity="0.7" fill-opacity="0.7" transform="translate(222.966796875 61.700439453125) rotate(0 -1.0830078125 -7.6064453125)"><path d="M-3.75 -7.69 C-3.27 -9.99, -2.78 -12.28, -2.17 -15.21 M-3.75 -7.69 C-3.17 -10.47, -2.58 -13.24, -2.17 -15.21" stroke="#1971c2" stroke-width="2" fill="none"/></g></g><mask/><g stroke-linecap="round"><g stroke-opacity="0.7" fill-opacity="0.7" transform="translate(169.7734375 42.902587890625) rotate(0 -1.0830078125 -7.6064453125)"><path d="M0 0 C-0.36 -2.54, -1.81 -12.68, -2.17 -15.21 M0 0 C-0.36 -2.54, -1.81 -12.68, -2.17 -15.21" stroke="#e03131" stroke-width="2" fill="none"/></g><g stroke-opacity="0.7" fill-opacity="0.7" transform="translate(169.7734375 42.902587890625) rotate(0 -1.0830078125 -7.6064453125)"><path d="M1.45 -8.44 C0.6 -10.03, -0.25 -11.63, -2.17 -15.21 M1.45 -8.44 C0.39 -10.43, -0.68 -12.43, -2.17 -15.21" stroke="#e03131" stroke-width="2" fill="none"/></g><g stroke-opacity="0.7" fill-opacity="0.7" transform="translate(169.7734375 42.902587890625) rotate(0 -1.0830078125 -7.6064453125)"><path d="M-3.75 -7.69 C-3.38 -9.47, -3 -11.24, -2.17 -15.21 M-3.75 -7.69 C-3.28 -9.91, -2.82 -12.13, -2.17 -15.21" stroke="#e03131" stroke-width="2" fill="none"/></g></g><mask/><g stroke-linecap="round"><g stroke-opacity="0.7" fill-opacity="0.7" transform="translate(129.08538515427972 128.96771071901514) rotate(0 -1.51339570213986 -8.171233289195072)"><path d="M0 0 C-0.5 -2.72, -2.52 -13.62, -3.03 -16.34 M0 0 C-0.5 -2.72, -2.52 -13.62, -3.03 -16.34" stroke="#e03131" stroke-width="2" fill="none"/></g><g stroke-opacity="0.7" fill-opacity="0.7" transform="translate(129.08538515427972 128.96771071901514) rotate(0 -1.51339570213986 -8.171233289195072)"><path d="M1.19 -9.18 C0.31 -10.67, -0.57 -12.17, -3.03 -16.34 M1.19 -9.18 C0.33 -10.64, -0.52 -12.09, -3.03 -16.34" stroke="#e03131" stroke-width="2" fill="none"/></g><g stroke-opacity="0.7" fill-opacity="0.7" transform="translate(129.08538515427972 128.96771071901514) rotate(0 -1.51339570213986 -8.171233289195072)"><path d="M-4.4 -8.15 C-4.11 -9.86, -3.83 -11.56, -3.03 -16.34 M-4.4 -8.15 C-4.12 -9.81, -3.84 -11.47, -3.03 -16.34" stroke="#e03131" stroke-width="2" fill="none"/></g></g><mask/><g stroke-linecap="round"><g stroke-opacity="0.7" fill-opacity="0.7" transform="translate(224.6875 117.320556640625) rotate(0 2.353515625 -7.8720703125)"><path d="M0 0 C0.78 -2.62, 3.92 -13.12, 4.71 -15.74 M0 0 C0.78 -2.62, 3.92 -13.12, 4.71 -15.74" stroke="#e03131" stroke-width="2" fill="none"/></g><g stroke-opacity="0.7" fill-opacity="0.7" transform="translate(224.6875 117.320556640625) rotate(0 2.353515625 -7.8720703125)"><path d="M5.19 -7.54 C5.07 -9.63, 4.94 -11.71, 4.71 -15.74 M5.19 -7.54 C5.01 -10.51, 4.84 -13.49, 4.71 -15.74" stroke="#e03131" stroke-width="2" fill="none"/></g><g stroke-opacity="0.7" fill-opacity="0.7" transform="translate(224.6875 117.320556640625) rotate(0 2.353515625 -7.8720703125)"><path d="M-0.2 -9.15 C1.05 -10.83, 2.3 -12.5, 4.71 -15.74 M-0.2 -9.15 C1.58 -11.54, 3.36 -13.93, 4.71 -15.74" stroke="#e03131" stroke-width="2" fill="none"/></g></g><mask/><g stroke-opacity="0.7" fill-opacity="0.7" transform="translate(158.0107421875 48.249267578125) rotate(0 6.671875 9.199999999999989)"><text x="0" y="0" font-family="Helvetica, Segoe UI Emoji" font-size="16px" fill="#e03131" text-anchor="start" style="white-space: pre;" direction="ltr" dominant-baseline="text-before-edge">t1</text></g><g stroke-opacity="0.7" fill-opacity="0.7" transform="translate(136.9853515625 99.67426757812495) rotate(0 6.671875 9.199999999999989)"><text x="0" y="0" font-family="Helvetica, Segoe UI Emoji" font-size="16px" fill="#e03131" text-anchor="start" style="white-space: pre;" direction="ltr" dominant-baseline="text-before-edge">t3</text></g><g stroke-opacity="0.7" fill-opacity="0.7" transform="translate(191.0439453125 87.78168945312495) rotate(0 6.671875 9.199999999999989)"><text x="0" y="0" font-family="Helvetica, Segoe UI Emoji" font-size="16px" fill="#e03131" text-anchor="start" style="white-space: pre;" direction="ltr" dominant-baseline="text-before-edge">t5</text></g><g stroke-opacity="0.7" fill-opacity="0.7" transform="translate(131.8212890625 67.71723632812495) rotate(0 6.671875 9.199999999999989)"><text x="0" y="0" font-family="Helvetica, Segoe UI Emoji" font-size="16px" fill="#1971c2" text-anchor="start" style="white-space: pre;" direction="ltr" dominant-baseline="text-before-edge">t2</text></g><g stroke-opacity="0.7" fill-opacity="0.7" transform="translate(157.1826171875 107.29536132812495) rotate(0 6.671875 9.199999999999989)"><text x="0" y="0" font-family="Helvetica, Segoe UI Emoji" font-size="16px" fill="#1971c2" text-anchor="start" style="white-space: pre;" direction="ltr" dominant-baseline="text-before-edge">t4</text></g><g stroke-opacity="0.7" fill-opacity="0.7" transform="translate(190.5517578125 65.21333007812495) rotate(0 6.671875 9.199999999999989)"><text x="0" y="0" font-family="Helvetica, Segoe UI Emoji" font-size="16px" fill="#1971c2" text-anchor="start" style="white-space: pre;" direction="ltr" dominant-baseline="text-before-edge">t6</text></g></svg>